# xmcd
#
# Track frame offsets:
#	150
#	35613
#	85742
#	119277
#	146090
#	175646
#	188439
#	229958
#	270793
#
# Disc length: 3898 seconds
#
# Revision: 1
# Processed by: cddbd v1.5.2PL0 Copyright (c) Steve Scherf et al.
# Submitted via: audiograbber 1.83.01
#
DISCID=6b0f3809
DTITLE=Grateful Dead - 78-11-18 Uptown Theatre, Chicago IL
DYEAR=1900
DGENRE=
TTITLE0=I Need A Miracle
TTITLE1=He's Gone
TTITLE2=The Other One
TTITLE3=Jam
TTITLE4=Drums
TTITLE5=Ollin Arageed Jam
TTITLE6=Wharf Rat
TTITLE7=Sugar Magnolia
TTITLE8=One More Saturday Night
EXTD=
EXTT0=
EXTT1=
EXTT2=
EXTT3=
EXTT4=
EXTT5=
EXTT6=
EXTT7=
EXTT8=
PLAYORDER=
